<mxfile host="Electron" agent="Mozilla/5.0 (Windows NT 10.0; Win64; x64) AppleWebKit/537.36 (KHTML, like Gecko) draw.io/26.1.1 Chrome/132.0.6834.210 Electron/34.3.3 Safari/537.36" version="26.1.1">
  <diagram name="Page-1" id="pdD4kSsvmsb9Y0oFoC-x">
    <mxGraphModel dx="1098" dy="820" grid="1" gridSize="10" guides="1" tooltips="1" connect="1" arrows="1" fold="1" page="1" pageScale="1" pageWidth="850" pageHeight="1100" math="0" shadow="0">
      <root>
        <mxCell id="0" />
        <mxCell id="1" parent="0" />
        <mxCell id="vQutW8Bo8oSmxXfcfKNz-1" value="&lt;b&gt;&lt;font style=&quot;font-size: 24px;&quot;&gt;Data Flow Diagram&lt;/font&gt;&lt;/b&gt;" style="text;html=1;align=center;verticalAlign=middle;whiteSpace=wrap;rounded=0;" parent="1" vertex="1">
          <mxGeometry x="10" y="20" width="280" height="30" as="geometry" />
        </mxCell>
        <mxCell id="vQutW8Bo8oSmxXfcfKNz-2" value="" style="rounded=0;whiteSpace=wrap;html=1;fillColor=none;dashed=1;" parent="1" vertex="1">
          <mxGeometry x="70" y="190" width="190" height="520" as="geometry" />
        </mxCell>
        <mxCell id="vQutW8Bo8oSmxXfcfKNz-3" value="sources" style="rounded=1;whiteSpace=wrap;html=1;strokeColor=none;" parent="1" vertex="1">
          <mxGeometry x="100" y="160" width="120" height="60" as="geometry" />
        </mxCell>
        <mxCell id="vQutW8Bo8oSmxXfcfKNz-4" value="" style="image;aspect=fixed;html=1;points=[];align=center;fontSize=12;image=img/lib/azure2/general/Folder_Blank.svg;" parent="1" vertex="1">
          <mxGeometry x="130" y="322" width="79" height="64.12" as="geometry" />
        </mxCell>
        <mxCell id="vQutW8Bo8oSmxXfcfKNz-5" value="&lt;b&gt;CRM&lt;/b&gt;" style="text;html=1;align=center;verticalAlign=middle;whiteSpace=wrap;rounded=0;" parent="1" vertex="1">
          <mxGeometry x="139.5" y="390.12" width="60" height="30" as="geometry" />
        </mxCell>
        <mxCell id="vQutW8Bo8oSmxXfcfKNz-17" style="edgeStyle=orthogonalEdgeStyle;rounded=0;orthogonalLoop=1;jettySize=auto;html=1;" parent="1" source="vQutW8Bo8oSmxXfcfKNz-6" target="vQutW8Bo8oSmxXfcfKNz-9" edge="1">
          <mxGeometry relative="1" as="geometry">
            <Array as="points">
              <mxPoint x="252" y="552" />
              <mxPoint x="252" y="480" />
            </Array>
          </mxGeometry>
        </mxCell>
        <mxCell id="vQutW8Bo8oSmxXfcfKNz-18" style="edgeStyle=orthogonalEdgeStyle;rounded=0;orthogonalLoop=1;jettySize=auto;html=1;" parent="1" source="vQutW8Bo8oSmxXfcfKNz-6" edge="1">
          <mxGeometry relative="1" as="geometry">
            <mxPoint x="300" y="552.06" as="targetPoint" />
          </mxGeometry>
        </mxCell>
        <mxCell id="vQutW8Bo8oSmxXfcfKNz-20" style="edgeStyle=orthogonalEdgeStyle;rounded=0;orthogonalLoop=1;jettySize=auto;html=1;" parent="1" edge="1">
          <mxGeometry relative="1" as="geometry">
            <mxPoint x="300" y="618" as="targetPoint" />
            <mxPoint x="170" y="550.2199999999999" as="sourcePoint" />
            <Array as="points">
              <mxPoint x="251.5" y="550.12" />
            </Array>
          </mxGeometry>
        </mxCell>
        <mxCell id="vQutW8Bo8oSmxXfcfKNz-6" value="" style="image;aspect=fixed;html=1;points=[];align=center;fontSize=12;image=img/lib/azure2/general/Folder_Blank.svg;" parent="1" vertex="1">
          <mxGeometry x="120.5" y="520" width="79" height="64.12" as="geometry" />
        </mxCell>
        <mxCell id="vQutW8Bo8oSmxXfcfKNz-7" value="&lt;b&gt;ERP&lt;/b&gt;" style="text;html=1;align=center;verticalAlign=middle;whiteSpace=wrap;rounded=0;" parent="1" vertex="1">
          <mxGeometry x="130" y="588.12" width="60" height="30" as="geometry" />
        </mxCell>
        <mxCell id="vQutW8Bo8oSmxXfcfKNz-9" value="" style="rounded=1;whiteSpace=wrap;html=1;fillColor=#ffe6cc;strokeColor=#d79b00;fillStyle=hatch;" parent="1" vertex="1">
          <mxGeometry x="305" y="250" width="185" height="460" as="geometry" />
        </mxCell>
        <mxCell id="vQutW8Bo8oSmxXfcfKNz-10" value="&lt;font style=&quot;font-size: 20px;&quot;&gt;&lt;b&gt;Bronze Layer&lt;/b&gt;&lt;/font&gt;" style="rounded=1;whiteSpace=wrap;html=1;fillColor=#ffe6cc;strokeColor=#d79b00;" parent="1" vertex="1">
          <mxGeometry x="310" y="180" width="180" height="60" as="geometry" />
        </mxCell>
        <mxCell id="KEmWeCVXJalvY8nnRK3f-10" value="" style="edgeStyle=orthogonalEdgeStyle;rounded=0;orthogonalLoop=1;jettySize=auto;html=1;" parent="1" source="vQutW8Bo8oSmxXfcfKNz-11" target="KEmWeCVXJalvY8nnRK3f-3" edge="1">
          <mxGeometry relative="1" as="geometry" />
        </mxCell>
        <mxCell id="vQutW8Bo8oSmxXfcfKNz-11" value="&lt;font style=&quot;font-size: 16px;&quot;&gt;crm_sales_details&lt;/font&gt;" style="rounded=1;whiteSpace=wrap;html=1;fillColor=#ffe6cc;strokeColor=#d79b00;" parent="1" vertex="1">
          <mxGeometry x="325.63" y="270" width="148.75" height="40" as="geometry" />
        </mxCell>
        <mxCell id="KEmWeCVXJalvY8nnRK3f-11" value="" style="edgeStyle=orthogonalEdgeStyle;rounded=0;orthogonalLoop=1;jettySize=auto;html=1;" parent="1" source="vQutW8Bo8oSmxXfcfKNz-12" target="KEmWeCVXJalvY8nnRK3f-4" edge="1">
          <mxGeometry relative="1" as="geometry" />
        </mxCell>
        <mxCell id="vQutW8Bo8oSmxXfcfKNz-12" value="&lt;font style=&quot;font-size: 16px;&quot;&gt;crm_cust_info&lt;/font&gt;" style="rounded=1;whiteSpace=wrap;html=1;fillColor=#ffe6cc;strokeColor=#d79b00;" parent="1" vertex="1">
          <mxGeometry x="325.63" y="330" width="148.75" height="40" as="geometry" />
        </mxCell>
        <mxCell id="KEmWeCVXJalvY8nnRK3f-12" value="" style="edgeStyle=orthogonalEdgeStyle;rounded=0;orthogonalLoop=1;jettySize=auto;html=1;" parent="1" source="vQutW8Bo8oSmxXfcfKNz-13" target="KEmWeCVXJalvY8nnRK3f-5" edge="1">
          <mxGeometry relative="1" as="geometry" />
        </mxCell>
        <mxCell id="vQutW8Bo8oSmxXfcfKNz-13" value="&lt;font style=&quot;font-size: 16px;&quot;&gt;crm_prd_info&lt;/font&gt;" style="rounded=1;whiteSpace=wrap;html=1;fillColor=#ffe6cc;strokeColor=#d79b00;" parent="1" vertex="1">
          <mxGeometry x="325.63" y="390" width="148.75" height="30.12" as="geometry" />
        </mxCell>
        <mxCell id="KEmWeCVXJalvY8nnRK3f-13" value="" style="edgeStyle=orthogonalEdgeStyle;rounded=0;orthogonalLoop=1;jettySize=auto;html=1;" parent="1" source="vQutW8Bo8oSmxXfcfKNz-14" target="KEmWeCVXJalvY8nnRK3f-6" edge="1">
          <mxGeometry relative="1" as="geometry" />
        </mxCell>
        <mxCell id="vQutW8Bo8oSmxXfcfKNz-14" value="&lt;font style=&quot;font-size: 16px;&quot;&gt;erp_cust_az12&lt;/font&gt;" style="rounded=1;whiteSpace=wrap;html=1;fillColor=#ffe6cc;strokeColor=#d79b00;" parent="1" vertex="1">
          <mxGeometry x="323.12" y="470" width="148.75" height="30" as="geometry" />
        </mxCell>
        <mxCell id="KEmWeCVXJalvY8nnRK3f-14" value="" style="edgeStyle=orthogonalEdgeStyle;rounded=0;orthogonalLoop=1;jettySize=auto;html=1;" parent="1" source="vQutW8Bo8oSmxXfcfKNz-15" target="KEmWeCVXJalvY8nnRK3f-7" edge="1">
          <mxGeometry relative="1" as="geometry" />
        </mxCell>
        <mxCell id="vQutW8Bo8oSmxXfcfKNz-15" value="&lt;font style=&quot;font-size: 16px;&quot;&gt;erp_loc_a101&lt;/font&gt;" style="rounded=1;whiteSpace=wrap;html=1;fillColor=#ffe6cc;strokeColor=#d79b00;" parent="1" vertex="1">
          <mxGeometry x="323.12" y="530" width="148.75" height="40" as="geometry" />
        </mxCell>
        <mxCell id="KEmWeCVXJalvY8nnRK3f-15" value="" style="edgeStyle=orthogonalEdgeStyle;rounded=0;orthogonalLoop=1;jettySize=auto;html=1;" parent="1" source="vQutW8Bo8oSmxXfcfKNz-16" target="KEmWeCVXJalvY8nnRK3f-8" edge="1">
          <mxGeometry relative="1" as="geometry" />
        </mxCell>
        <mxCell id="vQutW8Bo8oSmxXfcfKNz-16" value="&lt;font style=&quot;font-size: 16px;&quot;&gt;erp_px_cat_g1v2&lt;/font&gt;" style="rounded=1;whiteSpace=wrap;html=1;fillColor=#ffe6cc;strokeColor=#d79b00;" parent="1" vertex="1">
          <mxGeometry x="323.12" y="600" width="148.75" height="30.12" as="geometry" />
        </mxCell>
        <mxCell id="vQutW8Bo8oSmxXfcfKNz-30" style="edgeStyle=orthogonalEdgeStyle;rounded=0;orthogonalLoop=1;jettySize=auto;html=1;entryX=0.016;entryY=0.228;entryDx=0;entryDy=0;entryPerimeter=0;" parent="1" source="vQutW8Bo8oSmxXfcfKNz-4" target="vQutW8Bo8oSmxXfcfKNz-9" edge="1">
          <mxGeometry relative="1" as="geometry" />
        </mxCell>
        <mxCell id="vQutW8Bo8oSmxXfcfKNz-32" style="edgeStyle=orthogonalEdgeStyle;rounded=0;orthogonalLoop=1;jettySize=auto;html=1;" parent="1" edge="1">
          <mxGeometry relative="1" as="geometry">
            <mxPoint x="209" y="352" as="sourcePoint" />
            <mxPoint x="314" y="280" as="targetPoint" />
            <Array as="points">
              <mxPoint x="261" y="352" />
              <mxPoint x="261" y="280" />
            </Array>
          </mxGeometry>
        </mxCell>
        <mxCell id="vQutW8Bo8oSmxXfcfKNz-33" style="edgeStyle=orthogonalEdgeStyle;rounded=0;orthogonalLoop=1;jettySize=auto;html=1;" parent="1" edge="1">
          <mxGeometry relative="1" as="geometry">
            <mxPoint x="329.5" y="420.12" as="targetPoint" />
            <mxPoint x="199.5" y="352.3399999999999" as="sourcePoint" />
            <Array as="points">
              <mxPoint x="260" y="352" />
              <mxPoint x="260" y="410" />
              <mxPoint x="330" y="410" />
            </Array>
          </mxGeometry>
        </mxCell>
        <mxCell id="KEmWeCVXJalvY8nnRK3f-1" value="" style="rounded=1;whiteSpace=wrap;html=1;fillColor=#f5f5f5;strokeColor=#666666;fillStyle=hatch;fontColor=#333333;" parent="1" vertex="1">
          <mxGeometry x="520" y="250" width="185" height="460" as="geometry" />
        </mxCell>
        <mxCell id="KEmWeCVXJalvY8nnRK3f-2" value="&lt;font style=&quot;font-size: 20px;&quot;&gt;&lt;b&gt;Silver Layer&lt;/b&gt;&lt;/font&gt;" style="rounded=1;whiteSpace=wrap;html=1;fillColor=#f5f5f5;strokeColor=#666666;fontColor=#333333;" parent="1" vertex="1">
          <mxGeometry x="525" y="180" width="180" height="60" as="geometry" />
        </mxCell>
        <mxCell id="KEmWeCVXJalvY8nnRK3f-3" value="&lt;font style=&quot;font-size: 16px;&quot;&gt;crm_sales_details&lt;/font&gt;" style="rounded=1;whiteSpace=wrap;html=1;fillColor=#f5f5f5;strokeColor=#666666;fontColor=#333333;" parent="1" vertex="1">
          <mxGeometry x="540.63" y="270" width="148.75" height="40" as="geometry" />
        </mxCell>
        <mxCell id="KEmWeCVXJalvY8nnRK3f-4" value="&lt;font style=&quot;font-size: 16px;&quot;&gt;crm_cust_info&lt;/font&gt;" style="rounded=1;whiteSpace=wrap;html=1;fillColor=#f5f5f5;strokeColor=#666666;fontColor=#333333;" parent="1" vertex="1">
          <mxGeometry x="540.63" y="330" width="148.75" height="40" as="geometry" />
        </mxCell>
        <mxCell id="KEmWeCVXJalvY8nnRK3f-5" value="&lt;font style=&quot;font-size: 16px;&quot;&gt;crm_prd_info&lt;/font&gt;" style="rounded=1;whiteSpace=wrap;html=1;fillColor=#f5f5f5;strokeColor=#666666;fontColor=#333333;" parent="1" vertex="1">
          <mxGeometry x="540.63" y="390" width="148.75" height="30.12" as="geometry" />
        </mxCell>
        <mxCell id="KEmWeCVXJalvY8nnRK3f-6" value="&lt;font style=&quot;font-size: 16px;&quot;&gt;erp_cust_az12&lt;/font&gt;" style="rounded=1;whiteSpace=wrap;html=1;fillColor=#f5f5f5;strokeColor=#666666;fontColor=#333333;" parent="1" vertex="1">
          <mxGeometry x="538.12" y="470" width="148.75" height="30" as="geometry" />
        </mxCell>
        <mxCell id="KEmWeCVXJalvY8nnRK3f-7" value="&lt;font style=&quot;font-size: 16px;&quot;&gt;erp_loc_a101&lt;/font&gt;" style="rounded=1;whiteSpace=wrap;html=1;fillColor=#f5f5f5;strokeColor=#666666;fontColor=#333333;" parent="1" vertex="1">
          <mxGeometry x="538.12" y="530" width="148.75" height="40" as="geometry" />
        </mxCell>
        <mxCell id="KEmWeCVXJalvY8nnRK3f-8" value="&lt;font style=&quot;font-size: 16px;&quot;&gt;erp_px_cat_g1v2&lt;/font&gt;" style="rounded=1;whiteSpace=wrap;html=1;fillColor=#f5f5f5;strokeColor=#666666;fontColor=#333333;" parent="1" vertex="1">
          <mxGeometry x="538.12" y="600" width="148.75" height="30.12" as="geometry" />
        </mxCell>
        <mxCell id="83vauQOpCcTT24dz2a2e-1" value="" style="rounded=1;whiteSpace=wrap;html=1;fillColor=#fff2cc;strokeColor=#d6b656;fillStyle=hatch;" vertex="1" parent="1">
          <mxGeometry x="750" y="250" width="185" height="460" as="geometry" />
        </mxCell>
        <mxCell id="83vauQOpCcTT24dz2a2e-2" value="&lt;font style=&quot;font-size: 20px;&quot;&gt;&lt;b&gt;Gold Layer&lt;/b&gt;&lt;/font&gt;" style="rounded=1;whiteSpace=wrap;html=1;fillColor=#fff2cc;strokeColor=#d6b656;" vertex="1" parent="1">
          <mxGeometry x="755" y="180" width="180" height="60" as="geometry" />
        </mxCell>
        <mxCell id="83vauQOpCcTT24dz2a2e-3" value="&lt;font style=&quot;font-size: 16px;&quot;&gt;fact_sales&lt;/font&gt;" style="rounded=1;whiteSpace=wrap;html=1;fillColor=#fff2cc;strokeColor=#d6b656;" vertex="1" parent="1">
          <mxGeometry x="768.12" y="270" width="148.75" height="40" as="geometry" />
        </mxCell>
        <mxCell id="83vauQOpCcTT24dz2a2e-4" value="&lt;font style=&quot;font-size: 16px;&quot;&gt;dim_customers&lt;/font&gt;" style="rounded=1;whiteSpace=wrap;html=1;fillColor=#fff2cc;strokeColor=#d6b656;" vertex="1" parent="1">
          <mxGeometry x="770.63" y="410" width="148.75" height="40" as="geometry" />
        </mxCell>
        <mxCell id="83vauQOpCcTT24dz2a2e-5" value="&lt;font style=&quot;font-size: 16px;&quot;&gt;dim_products&lt;/font&gt;" style="rounded=1;whiteSpace=wrap;html=1;fillColor=#fff2cc;strokeColor=#d6b656;" vertex="1" parent="1">
          <mxGeometry x="768.12" y="550" width="148.75" height="30.12" as="geometry" />
        </mxCell>
        <mxCell id="83vauQOpCcTT24dz2a2e-9" value="" style="endArrow=classic;html=1;rounded=0;entryX=0.054;entryY=0.109;entryDx=0;entryDy=0;entryPerimeter=0;" edge="1" parent="1" target="83vauQOpCcTT24dz2a2e-1">
          <mxGeometry width="50" height="50" relative="1" as="geometry">
            <mxPoint x="705" y="300" as="sourcePoint" />
            <mxPoint x="755" y="250" as="targetPoint" />
          </mxGeometry>
        </mxCell>
        <mxCell id="83vauQOpCcTT24dz2a2e-10" value="" style="endArrow=classic;html=1;rounded=0;entryX=0;entryY=0.5;entryDx=0;entryDy=0;jumpStyle=gap;" edge="1" parent="1" target="83vauQOpCcTT24dz2a2e-4">
          <mxGeometry width="50" height="50" relative="1" as="geometry">
            <mxPoint x="686.87" y="360" as="sourcePoint" />
            <mxPoint x="736.87" y="310" as="targetPoint" />
          </mxGeometry>
        </mxCell>
        <mxCell id="83vauQOpCcTT24dz2a2e-11" value="" style="endArrow=classic;html=1;rounded=0;entryX=0;entryY=0.25;entryDx=0;entryDy=0;jumpStyle=gap;" edge="1" parent="1" target="83vauQOpCcTT24dz2a2e-5">
          <mxGeometry width="50" height="50" relative="1" as="geometry">
            <mxPoint x="686.87" y="400.12" as="sourcePoint" />
            <mxPoint x="770" y="420.12" as="targetPoint" />
          </mxGeometry>
        </mxCell>
        <mxCell id="83vauQOpCcTT24dz2a2e-12" value="" style="endArrow=classic;html=1;rounded=0;entryX=0;entryY=0.75;entryDx=0;entryDy=0;jumpStyle=gap;" edge="1" parent="1" target="83vauQOpCcTT24dz2a2e-4">
          <mxGeometry width="50" height="50" relative="1" as="geometry">
            <mxPoint x="686.87" y="550" as="sourcePoint" />
            <mxPoint x="736.87" y="500" as="targetPoint" />
          </mxGeometry>
        </mxCell>
        <mxCell id="83vauQOpCcTT24dz2a2e-13" value="" style="endArrow=classic;html=1;rounded=0;entryX=0;entryY=0.5;entryDx=0;entryDy=0;jumpStyle=gap;" edge="1" parent="1" target="83vauQOpCcTT24dz2a2e-4">
          <mxGeometry width="50" height="50" relative="1" as="geometry">
            <mxPoint x="689.38" y="490.12" as="sourcePoint" />
            <mxPoint x="782.51" y="420.12" as="targetPoint" />
          </mxGeometry>
        </mxCell>
        <mxCell id="83vauQOpCcTT24dz2a2e-14" value="" style="endArrow=classic;html=1;rounded=0;entryX=0;entryY=0.25;entryDx=0;entryDy=0;jumpStyle=gap;" edge="1" parent="1" target="83vauQOpCcTT24dz2a2e-5">
          <mxGeometry width="50" height="50" relative="1" as="geometry">
            <mxPoint x="686.87" y="618.12" as="sourcePoint" />
            <mxPoint x="760" y="560" as="targetPoint" />
          </mxGeometry>
        </mxCell>
      </root>
    </mxGraphModel>
  </diagram>
</mxfile>
